<svg width="20" height="23" viewBox="0 0 20 23" fill="none" xmlns="http://www.w3.org/2000/svg">
<path d="M9.99978 0.601562C9.04211 0.601562 8.26644 1.37723 8.26644 2.3349V2.56172C5.27796 3.33269 3.06644 6.03907 3.06644 9.26823V11.3435C3.06644 12.7215 2.78344 14.0756 2.25564 15.3349H17.7439C17.2161 14.0765 16.9331 12.7215 16.9331 11.3435V9.26823C16.9331 6.03907 14.7216 3.33269 11.7331 2.56172V2.3349C11.7331 1.37723 10.9574 0.601562 9.99978 0.601562ZM1.33311 17.0682C1.21827 17.0666 1.10425 17.0878 0.997674 17.1306C0.891102 17.1735 0.794104 17.2371 0.712317 17.3177C0.63053 17.3983 0.565585 17.4944 0.521257 17.6004C0.476929 17.7063 0.454102 17.82 0.454102 17.9349C0.454102 18.0497 0.476929 18.1635 0.521257 18.2694C0.565585 18.3754 0.63053 18.4715 0.712317 18.5521C0.794104 18.6327 0.891102 18.6963 0.997674 18.7391C1.10425 18.782 1.21827 18.8032 1.33311 18.8016H7.55212C7.45247 19.0797 7.40095 19.3728 7.39978 19.6682C7.39978 20.3578 7.67371 21.0191 8.1613 21.5067C8.64889 21.9943 9.31021 22.2682 9.99978 22.2682C10.6893 22.2682 11.3507 21.9943 11.8383 21.5067C12.3258 21.0191 12.5998 20.3578 12.5998 19.6682C12.5991 19.3729 12.5482 19.0798 12.4491 18.8016H18.6664C18.7813 18.8032 18.8953 18.782 19.0019 18.7391C19.1085 18.6963 19.2055 18.6327 19.2872 18.5521C19.369 18.4715 19.434 18.3754 19.4783 18.2694C19.5226 18.1635 19.5455 18.0497 19.5455 17.9349C19.5455 17.82 19.5226 17.7063 19.4783 17.6004C19.434 17.4944 19.369 17.3983 19.2872 17.3177C19.2055 17.2371 19.1085 17.1735 19.0019 17.1306C18.8953 17.0878 18.7813 17.0666 18.6664 17.0682H9.99978H1.33311Z" fill="#8D9095"/>
</svg>
